HIERARCHY
ROOT hip
{
  OFFSET 0.00112043 5.09927 -9.65472
  CHANNELS 6 Xposition Yposition Zposition Zrotation Xrotation Yrotation
  JOINT abdomen
  {
    OFFSET 0 -1.186 -1.5018
    CHANNELS 3 Zrotation Xrotation Yrotation
    JOINT abdomen2
    {
      OFFSET 0 9.964 0.2134
      CHANNELS 3 Zrotation Xrotation Yrotation
      JOINT chest
      {
        OFFSET 0 13.134 -3.2573
        CHANNELS 3 Zrotation Xrotation Yrotation
        JOINT neck
        {
          OFFSET 0 20.686 -1.6905
          CHANNELS 3 Zrotation Xrotation Yrotation
          JOINT head
          {
            OFFSET 0 7.238 -0.1237
            CHANNELS 3 Zrotation Xrotation Yrotation
            End Site
            {
              OFFSET 0 0 0
            }
          }
        }
        JOINT lCollar
        {
          OFFSET 1.7069 20.075 5.0056
          CHANNELS 3 Zrotation Xrotation Yrotation
          JOINT lShldr
          {
            OFFSET 13.6458 -0.047 -4.849
            CHANNELS 3 Zrotation Xrotation Yrotation
            JOINT lForeArm
            {
              OFFSET 28.3255 -0.9759 2.2888
              CHANNELS 3 Zrotation Xrotation Yrotation
              JOINT lHand
              {
                OFFSET 22.1583 -0.53 10.8316
                CHANNELS 3 Zrotation Xrotation Yrotation
                JOINT lThumb1
                {
                  OFFSET 0.786 0.112 2.5817
                  CHANNELS 3 Zrotation Xrotation Yrotation
                  JOINT lThumb2
                  {
                    OFFSET 0.3601 -0.878 4.2331
                    CHANNELS 3 Zrotation Xrotation Yrotation
                    JOINT lThumb2_End
                    {
                      OFFSET 1.8127 -1.216 2.2227
                      CHANNELS 3 Zrotation Xrotation Yrotation
                      End Site
                      {
                        OFFSET 0.0181 -0.0122 0.0222
                      }
                    }
                  }
                }
                JOINT lCarpal1
                {
                  OFFSET 0.9571 1.114 1.7695
                  CHANNELS 3 Zrotation Xrotation Yrotation
                  JOINT lIndex1
                  {
                    OFFSET 4.1246 0.487 4.1451
                    CHANNELS 3 Zrotation Xrotation Yrotation
                    JOINT lIndex2
                    {
                      OFFSET 3.4052 -1.454 2.7682
                      CHANNELS 3 Zrotation Xrotation Yrotation
                      JOINT lIndex2_End
                      {
                        OFFSET 1.4531 -1.795 1.2713
                        CHANNELS 3 Zrotation Xrotation Yrotation
                        End Site
                        {
                          OFFSET 0.0145 -0.0179 0.0127
                        }
                      }
                    }
                  }
                  JOINT lMid1
                  {
                    OFFSET 5.6954 0.21 2.1184
                    CHANNELS 3 Zrotation Xrotation Yrotation
                    JOINT lMid2
                    {
                      OFFSET 3.9766 -1.54 2.3863
                      CHANNELS 3 Zrotation Xrotation Yrotation
                      JOINT lMid2_End
                      {
                        OFFSET 1.4042 -1.926 1.125
                        CHANNELS 3 Zrotation Xrotation Yrotation
                        End Site
                        {
                          OFFSET 0.014 -0.0193 0.0113
                        }
                      }
                    }
                  }
                }
                JOINT lCarpal2
                {
                  OFFSET 2.0956 0.66 -0.3894
                  CHANNELS 3 Zrotation Xrotation Yrotation
                  JOINT lRing1
                  {
                    OFFSET 5.0395 -0.09 2.4971
                    CHANNELS 3 Zrotation Xrotation Yrotation
                    JOINT lRing2
                    {
                      OFFSET 3.7921 -1.552 1.4806
                      CHANNELS 3 Zrotation Xrotation Yrotation
                      JOINT lRing2_End
                      {
                        OFFSET 1.4655 -1.808 0.9609
                        CHANNELS 3 Zrotation Xrotation Yrotation
                        End Site
                        {
                          OFFSET 0.0147 -0.0181 0.0096
                        }
                      }
                    }
                  }
                  JOINT lPinky1
                  {
                    OFFSET 4.9141 -1.269 0.3591
                    CHANNELS 3 Zrotation Xrotation Yrotation
                    JOINT lPinky2
                    {
                      OFFSET 3.1477 -1.685 0.8462
                      CHANNELS 3 Zrotation Xrotation Yrotation
                      JOINT lPinky2_End
                      {
                        OFFSET 0.8055 -1.585 0.7955
                        CHANNELS 3 Zrotation Xrotation Yrotation
                        End Site
                        {
                          OFFSET 0.0081 -0.0158 0.008
                        }
                      }
                    }
                  }
                }
              }
            }
          }
        }
        JOINT rCollar
        {
          OFFSET -1.7069 20.075 5.0056
          CHANNELS 3 Zrotation Xrotation Yrotation
          JOINT rShldr
          {
            OFFSET -13.6458 -0.047 -4.849
            CHANNELS 3 Zrotation Xrotation Yrotation
            JOINT rForeArm
            {
              OFFSET -28.3255 -0.9759 2.2888
              CHANNELS 3 Zrotation Xrotation Yrotation
              JOINT rHand
              {
                OFFSET -22.1583 -0.53 10.8316
                CHANNELS 3 Zrotation Xrotation Yrotation
                JOINT rThumb1
                {
                  OFFSET -0.786 0.112 2.5817
                  CHANNELS 3 Zrotation Xrotation Yrotation
                  JOINT rThumb2
                  {
                    OFFSET -0.3601 -0.878 4.2331
                    CHANNELS 3 Zrotation Xrotation Yrotation
                    JOINT rThumb2_End
                    {
                      OFFSET -1.8127 -1.216 2.2227
                      CHANNELS 3 Zrotation Xrotation Yrotation
                      End Site
                      {
                        OFFSET -0.0181 -0.0122 0.0222
                      }
                    }
                  }
                }
                JOINT rCarpal1
                {
                  OFFSET -0.9571 1.114 1.7695
                  CHANNELS 3 Zrotation Xrotation Yrotation
                  JOINT rIndex1
                  {
                    OFFSET -4.1246 0.487 4.1451
                    CHANNELS 3 Zrotation Xrotation Yrotation
                    JOINT rIndex2
                    {
                      OFFSET -3.4052 -1.454 2.7682
                      CHANNELS 3 Zrotation Xrotation Yrotation
                      JOINT rIndex2_End
                      {
                        OFFSET -1.4531 -1.795 1.2713
                        CHANNELS 3 Zrotation Xrotation Yrotation
                        End Site
                        {
                          OFFSET -0.0145 -0.018 0.0127
                        }
                      }
                    }
                  }
                  JOINT rMid1
                  {
                    OFFSET -5.6954 0.21 2.1184
                    CHANNELS 3 Zrotation Xrotation Yrotation
                    JOINT rMid2
                    {
                      OFFSET -3.9766 -1.54 2.3863
                      CHANNELS 3 Zrotation Xrotation Yrotation
                      JOINT rMid2_End
                      {
                        OFFSET -1.4042 -1.926 1.125
                        CHANNELS 3 Zrotation Xrotation Yrotation
                        End Site
                        {
                          OFFSET -0.014 -0.0193 0.0113
                        }
                      }
                    }
                  }
                }
                JOINT rCarpal2
                {
                  OFFSET -2.0956 0.66 -0.3894
                  CHANNELS 3 Zrotation Xrotation Yrotation
                  JOINT rRing1
                  {
                    OFFSET -5.0395 -0.09 2.4971
                    CHANNELS 3 Zrotation Xrotation Yrotation
                    JOINT rRing2
                    {
                      OFFSET -3.7921 -1.552 1.4806
                      CHANNELS 3 Zrotation Xrotation Yrotation
                      JOINT rRing2_End
                      {
                        OFFSET -1.4655 -1.808 0.9609
                        CHANNELS 3 Zrotation Xrotation Yrotation
                        End Site
                        {
                          OFFSET -0.0147 -0.0181 0.0096
                        }
                      }
                    }
                  }
                  JOINT rPinky1
                  {
                    OFFSET -4.9141 -1.269 0.3592
                    CHANNELS 3 Zrotation Xrotation Yrotation
                    JOINT rPinky2
                    {
                      OFFSET -3.1477 -1.685 0.8462
                      CHANNELS 3 Zrotation Xrotation Yrotation
                      JOINT rPinky2_End
                      {
                        OFFSET -0.8055 -1.585 0.7955
                        CHANNELS 3 Zrotation Xrotation Yrotation
                        End Site
                        {
                          OFFSET -0.0081 -0.0158 0.008
                        }
                      }
                    }
                  }
                }
              }
            }
          }
        }
      }
    }
  }
  JOINT lThigh
  {
    OFFSET 8.367 -8.2066 0.5982
    CHANNELS 3 Zrotation Xrotation Yrotation
    JOINT lShin
    {
      OFFSET 2.1923 -43.463 -0.4932
      CHANNELS 3 Zrotation Xrotation Yrotation
      JOINT lFoot
      {
        OFFSET 0.7333 -45.8593 -2.6451
        CHANNELS 3 Zrotation Xrotation Yrotation
        End Site
        {
          OFFSET 2.6618 -4.2699 12.3931
        }
      }
    }
  }
  JOINT rThigh
  {
    OFFSET -8.367 -8.2066 0.5982
    CHANNELS 3 Zrotation Xrotation Yrotation
    JOINT rShin
    {
      OFFSET -2.1923 -43.463 -0.4931
      CHANNELS 3 Zrotation Xrotation Yrotation
      JOINT rFoot
      {
        OFFSET -0.7333 -45.8593 -2.6451
        CHANNELS 3 Zrotation Xrotation Yrotation
        End Site
        {
          OFFSET -2.6618 -4.2699 12.3931
        }
      }
    }
  }
}
MOTION
Frames:	4
Frame Time:	0.0333333
42.3131 2.93393 -10.2074 -180 -76.7709 -180 -0.0682567 3.36447 -0.150395 -0.127981 6.72911 -0.297539 -0.127981 6.72908 -0.297538 5.96216 23.4809 6.60913 2.0647 -4.83728 0.00285682 -11.2112 7.1269 8.05407 -53.2968 -11.3001 -19.5485 -1.31652 41.5212 -39.7525 -1.58855 4.77881 13.7941 1.07377e-006 1.06795e-006 -7.76296e-007 1.61065e-006 1.60193e-006 -1.16444e-006 5.36885e-007 5.33977e-007 -3.88148e-007 -1.32417e-031 -2.38542e-015 -3.18055e-015 1.07377e-006 1.06795e-006 -7.76296e-007 1.61065e-006 1.60193e-006 -1.16444e-006 5.36885e-007 5.33976e-007 -3.88148e-007 1.07377e-006 1.06795e-006 -7.76296e-007 1.61065e-006 1.60193e-006 -1.16444e-006 5.36885e-007 5.33976e-007 -3.88148e-007 -1.32417e-031 -2.38542e-015 -3.18055e-015 1.07377e-006 1.06795e-006 -7.76296e-007 1.61065e-006 1.60193e-006 -1.16444e-006 5.36885e-007 5.33976e-007 -3.88148e-007 1.07377e-006 1.06795e-006 -7.76296e-007 1.61065e-006 1.60193e-006 -1.16444e-006 5.36885e-007 5.33976e-007 -3.88148e-007 11.6398 6.83606 -7.49705 53.4675 -11.2563 20.2893 0.156823 40.7173 38.8744 1.96706 5.53891 -13.4282 -9.54166e-015 5.56597e-015 6.36111e-015 -6.36111e-015 4.77083e-015 4.77083e-015 -3.18055e-015 2.38542e-015 7.95139e-015 -9.54166e-015 5.56597e-015 4.77083e-015 -2.47179e-030 1.27222e-014 1.11319e-014 3.18055e-015 7.15625e-015 7.95139e-015 -3.18055e-015 7.95139e-015 6.36111e-015 -2.47179e-030 1.27222e-014 1.11319e-014 3.18055e-015 7.15625e-015 7.95139e-015 -3.18055e-015 7.95139e-015 6.36111e-015 -9.54166e-015 5.56597e-015 4.77083e-015 -2.47179e-030 1.27222e-014 1.11319e-014 3.18055e-015 7.15625e-015 7.95139e-015 -3.18055e-015 7.95139e-015 6.36111e-015 -2.47179e-030 1.27222e-014 1.11319e-014 3.18055e-015 7.15625e-015 7.95139e-015 -3.18055e-015 7.95139e-015 6.36111e-015 1.22819 -12.7891 29.5018 40.1607 46.6444 -23.4265 -12.7559 23.6683 0.512368 -1.68832 -12.8086 -30.2059 -40.1566 46.6406 23.4218 12.1497 23.6842 0.233541 
42.3131 2.91067 -10.2045 -180 -76.9544 -180 -0.0678409 3.27771 -0.150588 -0.12735 6.55559 -0.298016 -0.12735 6.55557 -0.298016 5.9451 23.6253 6.40623 1.94846 -4.6731 -0.218187 -11.4705 7.12123 7.84825 -53.1982 -11.3756 -19.5605 -1.20777 41.3837 -39.1495 -1.76574 4.85565 13.4886 -1.07347e-006 -1.06818e-006 7.76414e-007 -1.07347e-006 -1.06818e-006 7.76414e-007 -1.07347e-006 -1.06818e-006 7.76414e-007 6.36111e-015 2.38542e-015 -1.59028e-015 -1.07347e-006 -1.06818e-006 7.76414e-007 -1.07347e-006 -1.06818e-006 7.76414e-007 -1.07347e-006 -1.06818e-006 7.76414e-007 -1.07347e-006 -1.06818e-006 7.76414e-007 -1.07347e-006 -1.06818e-006 7.76414e-007 -1.07347e-006 -1.06818e-006 7.76414e-007 6.36111e-015 2.38542e-015 -1.59028e-015 -1.07347e-006 -1.06818e-006 7.76414e-007 -1.07347e-006 -1.06818e-006 7.76414e-007 -1.07347e-006 -1.06818e-006 7.76414e-007 -1.07347e-006 -1.06818e-006 7.76414e-007 -1.07347e-006 -1.06818e-006 7.76414e-007 -1.07347e-006 -1.06818e-006 7.76414e-007 11.8842 6.84249 -7.31045 53.3701 -11.3308 20.3026 0.0360428 40.609 38.2864 2.12707 5.59654 -13.13 5.41246e-007 -5.23036e-007 -3.97325e-007 1.08249e-006 -1.04607e-006 -7.94649e-007 5.41246e-007 -5.23036e-007 -3.97325e-007 -2.64834e-031 -3.18055e-015 -4.77083e-015 5.41246e-007 -5.23036e-007 -3.97325e-007 1.08249e-006 -1.04607e-006 -7.94649e-007 5.41246e-007 -5.23036e-007 -3.97325e-007 5.41246e-007 -5.23036e-007 -3.97325e-007 1.08249e-006 -1.04607e-006 -7.94649e-007 5.41246e-007 -5.23036e-007 -3.97325e-007 -2.64834e-031 -3.18055e-015 -4.77083e-015 5.41246e-007 -5.23036e-007 -3.97325e-007 1.08249e-006 -1.04607e-006 -7.94649e-007 5.41246e-007 -5.23036e-007 -3.97325e-007 5.41246e-007 -5.23036e-007 -3.97325e-007 1.08249e-006 -1.04607e-006 -7.94649e-007 5.41246e-007 -5.23036e-007 -3.97325e-007 1.28959 -13.0272 29.6088 40.1624 46.6454 -23.4283 -12.6641 23.6857 0.405614 -1.73544 -13.0433 -30.2896 -40.1563 46.6404 23.4221 12.0788 23.7003 0.31419 
42.3131 2.88739 -10.2015 -180 -77.1379 -180 -0.0674218 3.19094 -0.150763 -0.126714 6.38205 -0.298454 -0.126714 6.38204 -0.298454 5.92863 23.7701 6.20315 1.83288 -4.50848 -0.43885 -11.7299 7.11656 7.64243 -53.0997 -11.4512 -19.5725 -1.09733 41.2471 -38.5477 -1.94254 4.93344 13.1832 1.16535e-007 -2.23037e-006 5.86998e-007 4.32733e-007 1.05335e-006 4.96033e-006 -1.07317e-006 -1.06841e-006 7.76535e-007 1.98626e-031 7.15625e-015 -1.59028e-015 1.16535e-007 -2.23037e-006 5.86998e-007 4.32733e-007 1.05335e-006 4.96033e-006 -1.07317e-006 -1.06841e-006 7.76535e-007 1.16535e-007 -2.23037e-006 5.86998e-007 4.32733e-007 1.05335e-006 4.96033e-006 -1.07317e-006 -1.06841e-006 7.76535e-007 1.98626e-031 7.15625e-015 -1.59028e-015 1.16535e-007 -2.23037e-006 5.86998e-007 4.32733e-007 1.05335e-006 4.96033e-006 -1.07317e-006 -1.06841e-006 7.76535e-007 1.16535e-007 -2.23037e-006 5.86998e-007 4.32733e-007 1.05335e-006 4.96033e-006 -1.07317e-006 -1.06841e-006 7.76535e-007 12.1287 6.84977 -7.12391 53.2725 -11.4054 20.3158 -0.0859335 40.5017 37.6993 2.28672 5.65535 -12.8319 -6.36111e-015 7.15625e-015 -1.59028e-015 1.08235e-006 -1.04604e-006 -7.94869e-007 5.41177e-007 -5.23018e-007 -3.97435e-007 -6.36111e-015 6.36111e-015 -0 -6.36111e-015 1.03368e-014 1.59028e-015 1.08235e-006 -1.04604e-006 -7.94869e-007 5.41177e-007 -5.23018e-007 -3.97435e-007 -6.36111e-015 1.03368e-014 1.59028e-015 1.08235e-006 -1.04604e-006 -7.94869e-007 5.41177e-007 -5.23018e-007 -3.97435e-007 -6.36111e-015 6.36111e-015 -0 -6.36111e-015 1.03368e-014 1.59028e-015 1.08235e-006 -1.04604e-006 -7.94869e-007 5.41177e-007 -5.23018e-007 -3.97435e-007 -6.36111e-015 1.03368e-014 1.59028e-015 1.08235e-006 -1.04604e-006 -7.94869e-007 5.41177e-007 -5.23018e-007 -3.97435e-007 1.35134 -13.267 29.7161 40.1661 46.6478 -23.4315 -12.5723 23.7028 0.298812 -1.7828 -13.2804 -30.3735 -40.1586 46.6419 23.4242 12.0079 23.7162 0.394876 
42.313 2.8641 -10.1985 -180 -77.3214 -180 -0.0670003 3.1042 -0.150917 -0.126076 6.20856 -0.298851 -0.126076 6.20857 -0.298851 5.91279 23.9146 5.99987 1.71796 -4.34342 -0.659131 -11.9893 7.1127 7.43659 -53.0011 -11.5267 -19.5844 -0.98527 41.1114 -37.9471 -2.11891 5.01216 12.8781 3.18055e-015 -3.18055e-015 -1.59028e-015 3.18055e-015 -2.38542e-015 -4.77083e-015 -6.36111e-015 -6.36111e-015 -1.59028e-015 3.18055e-015 -3.18055e-015 -0 1.98626e-030 -2.38542e-014 4.77083e-015 -6.36111e-015 7.95139e-015 -7.95139e-015 -3.18055e-015 2.38542e-015 -3.18055e-015 1.98626e-030 -2.38542e-014 4.77083e-015 -6.36111e-015 7.95139e-015 -7.95139e-015 -3.18055e-015 2.38542e-015 -3.18055e-015 3.18055e-015 -3.18055e-015 -0 1.98626e-030 -2.38542e-014 4.77083e-015 -6.36111e-015 7.95139e-015 -7.95139e-015 -3.18055e-015 2.38542e-015 -3.18055e-015 1.98626e-030 -2.38542e-014 4.77083e-015 -6.36111e-015 7.95139e-015 -7.95139e-015 -3.18055e-015 2.38542e-015 -3.18055e-015 12.3731 6.85771 -6.93737 53.175 -11.48 20.3289 -0.209105 40.3954 37.113 2.4461 5.7148 -12.534 -8.82781e-032 -1.59028e-015 -3.18055e-015 6.36111e-015 -3.97569e-015 -3.18055e-015 3.18055e-015 -3.97569e-015 1.59028e-015 -3.18055e-015 -7.95139e-016 -1.59028e-015 -3.18055e-015 6.36111e-015 3.18055e-015 -1.32417e-031 -1.59028e-015 -4.77083e-015 3.18055e-015 -5.56597e-015 -3.18055e-015 -3.18055e-015 6.36111e-015 3.18055e-015 -1.32417e-031 -1.59028e-015 -4.77083e-015 3.18055e-015 -5.56597e-015 -3.18055e-015 -3.18055e-015 -7.95139e-016 -1.59028e-015 -3.18055e-015 6.36111e-015 3.18055e-015 -1.32417e-031 -1.59028e-015 -4.77083e-015 3.18055e-015 -5.56597e-015 -3.18055e-015 -3.18055e-015 6.36111e-015 3.18055e-015 -1.32417e-031 -1.59028e-015 -4.77083e-015 3.18055e-015 -5.56597e-015 -3.18055e-015 1.41388 -13.501 29.824 40.1636 46.6463 -23.4305 -12.4803 23.7199 0.191953 -1.83058 -13.5164 -30.4578 -40.1599 46.6427 23.4256 11.937 23.7319 0.475582 
